<?xml version="1.0" encoding="utf-8"?>
<!-- Generator: Adobe Illustrator 16.0.0, SVG Export Plug-In . SVG Version: 6.00 Build 0)  -->
<!DOCTYPE svg PUBLIC "-//W3C//DTD SVG 1.1//EN" "http://www.w3.org/Graphics/SVG/1.1/DTD/svg11.dtd">
<svg version="1.1" id="Layer_1" xmlns="http://www.w3.org/2000/svg" xmlns:xlink="http://www.w3.org/1999/xlink" x="0px" y="0px"
	 width="1080px" height="1080px" viewBox="0 0 1080 1080" enable-background="new 0 0 1080 1080" xml:space="preserve">
<g>
	<defs>
		<rect id="SVGID_1_" x="61" y="104" width="958" height="976"/>
	</defs>
	<clipPath id="SVGID_2_">
		<use xlink:href="#SVGID_1_"  overflow="visible"/>
	</clipPath>
	<g clip-path="url(#SVGID_2_)">
		<defs>
			<rect id="SVGID_3_" x="61" y="104" width="958" height="976"/>
		</defs>
		<clipPath id="SVGID_4_">
			<use xlink:href="#SVGID_3_"  overflow="visible"/>
		</clipPath>
		<path clip-path="url(#SVGID_4_)" fill="#2B4361" d="M679.489,218.792c-3.973,6.863-3.627,16.457,18.886,42.511
			c0.748,0.869,1.509,1.745,2.278,2.628l-5.644,21.982l-1.623-2.076c-0.664-0.851-1.88-0.992-2.713-0.314l-1.792,1.452
			c-0.834,0.678-0.972,1.916-0.308,2.766l4.491,5.744l-5.697,22.191l-0.996-1.272c-0.664-0.851-1.88-0.991-2.713-0.314l-1.791,1.453
			c-0.835,0.677-0.972,1.915-0.308,2.765l3.863,4.942l-4.57,17.802l9.393,12.013l32.2-64.799
			c12.365,13.518,24.617,26.539,33.229,35.609l-6.627,22.881l6.246,7.991l13.075-19.625l6.215,3.974l-2.412-7.061l21.701-8.59
			l-6.248-7.992l-23.372,1.461c-6.751-10.581-16.464-25.662-26.631-40.964l69.196-17.474l-9.393-12.015l-18.053,0.555l-3.863-4.941
			c-0.666-0.85-1.881-0.99-2.714-0.314l-1.791,1.453c-0.835,0.677-0.972,1.915-0.307,2.765l0.995,1.274l-22.505,0.692l-4.491-5.746
			c-0.665-0.85-1.878-0.99-2.714-0.313l-1.791,1.453c-0.834,0.677-0.973,1.916-0.308,2.766l1.623,2.076l-22.29,0.685
			c-0.675-0.96-1.343-1.912-2.004-2.852c-19.89-28.182-28.992-30.673-36.445-28.263
			C680.233,217.925,679.774,218.298,679.489,218.792"/>
		<path clip-path="url(#SVGID_4_)" fill="#2B4361" d="M775.123,349.022c26.345,47.842,38.57,104.322,31.634,162.956
			C789.38,658.892,658.393,763.636,514.189,745.932c-144.205-17.705-247.018-151.152-229.64-298.066
			c11.465-96.929,72.392-175.491,153.935-212.652c-104.111,35.896-184.218,129.951-198.246,248.541
			c-19.468,164.588,95.714,314.091,257.266,333.924c161.552,19.835,308.298-97.511,327.766-262.1
			C834.234,479.796,814.635,407.224,775.123,349.022"/>
		<path clip-path="url(#SVGID_4_)" fill="#2B4361" d="M700.9,516.961c4.047-12.952,6.367-21.48,6.911-25.419
			c2.347-16.967-3.621-34.868-16.374-49.112c-19.205-21.451-42.714-39.237-69.942-52.934c-0.996-3.017-2.446-5.923-4.315-8.642
			l5.643-22.748c8.257-2.291,14.848-7.986,17.77-15.801c2.903-7.771,2.477-17.192-1.146-25.205
			c-3.31-7.324-9.075-12.794-16.233-15.407c-2.954-1.078-6.098-1.638-9.346-1.663c-13.119-0.102-26.263,8.514-30.571,20.042
			c-3.081,8.245-1.561,17.382,3.59,24.812l-10.802,19.734c-3.729,0.849-7.226,2.28-10.326,4.222
			c-20.795-5.225-41.725-7.951-62.305-8.112c-6.75-0.052-13.448,0.185-19.908,0.701c-19.86,1.59-36.726,10.974-46.27,25.747
			c-1.269,1.961-3.707,6.214-10.407,20.249l-19.089-2.15l-28.288,64.034l13.42,13.014c-4.521,10.413-5.489,13.002-5.807,13.927
			c-8.751,23.551-7.326,46.658,4.237,68.686c1.705,3.249,3.639,6.468,5.787,9.669l-2.227,1.428
			c-18.309,11.734-61.711,40.81-69.289,57.309c-4.35,9.463-1.736,16.146,0.208,19.289c2.454,3.964,7.611,8.707,18.243,8.79h0.003
			c6.258,0.049,12.646-1.51,14.201-1.916l21.238-4.882c-1.412,44.769,17.303,78.661,56.747,102.864
			c10.278,5.734,21.238,10.32,33.405,12.827c6.445,0.97,12.766,1.481,18.887,1.529h0.002c9.01,0.071,17.816-0.865,26.118-2.77
			l0.271-0.059c1.362-0.316,2.712-0.659,4.102-1.038l0.4-0.111c4.134-1.152,8.199-2.556,12.088-4.174l0.185-0.075
			c1.214-0.508,2.416-1.046,3.625-1.604l0.831-0.39c1.164-0.552,2.326-1.123,3.523-1.744l0.294-0.156
			c3.554-1.864,7.091-3.985,10.501-6.294c0.396-0.268,0.789-0.536,1.196-0.817c0.949-0.661,1.894-1.338,2.813-2.021
			c0.312-0.23,1.254-0.95,1.254-0.95c2.928-2.234,5.83-4.67,8.632-7.245l0.282-0.261c0.411-0.377,0.824-0.757,1.24-1.152
			c0.75-0.713,1.495-1.442,2.24-2.184c0.554-0.553,1.103-1.114,1.75-1.779c0.666-0.688,1.331-1.375,2.009-2.103
			c0.594-0.644,1.184-1.306,1.772-1.967l0.212-0.24c0.367-0.411,0.724-0.84,1.087-1.257l11.272,17.447
			c4.17,6.98,12.71,18.411,23.931,18.502h0.003c2.965,0.023,12.966-0.938,17.419-14.234c5.775-17.241-5.677-68.857-10.872-90.249
			l-0.514-2.118c8.354-2.26,16.225-5.55,23.546-9.881c6.473-3.828,12.002-8.929,16.436-15.155c1.487-2.09,5.253-7.378,17.222-39.128
			l22.085-0.233l22.829-66.241L700.9,516.961z"/>
		<path clip-path="url(#SVGID_4_)" fill="#FFFFFF" d="M593.935,658.361c-39.29,12.511-160.805-36.245-182.481-70.816l-6.005-0.427
			l-0.227,0.685l-1.185,3.569c-4.072,12.264-7.672,24.816-10.107,37.361c-9.195,47.366-1.571,94.615,61.934,125.702l1.313,0.643
			l1.411,0.333c62.433,14.708,109.001-15.317,138.414-89.239l1.634-4.108L593.935,658.361z"/>
		<polygon clip-path="url(#SVGID_4_)" fill="#E6E6E6" points="688.691,579.578 666.574,579.812 688.284,517.94 705.451,530.946 		
			"/>
		<polygon clip-path="url(#SVGID_4_)" fill="#FFFFFF" points="397.084,462.313 413.04,477.784 439.183,417.688 417.856,415.286 		
			"/>
		<path clip-path="url(#SVGID_4_)" fill="#FFFFFF" d="M697.449,485.795c1.809-13.067-2.901-27.078-13.171-38.548
			c-20.501-22.899-45.349-40.285-71.701-52.742c-0.246-5.099-2.837-10.22-7.114-14.231l9.439-38.068
			c7.218,0.674,13.824-2.544,16.037-8.458c2.795-7.476,0.222-20.119-9.766-23.763c-9.272-3.384-20.911,3.298-23.706,10.774
			c-2.341,6.262,0.971,13.608,7.511,17.933l-18.651,34.07c-6.187,0.048-11.803,2.311-15.347,6.339
			c-29.172-8.047-58.4-10.722-84.178-8.659c-15.827,1.268-29.242,8.522-36.622,19.941c-7.174,11.103-46.705,99.923-48.826,106.35
			c-16.508,44.126,11.751,77.236,42.168,101.068c1.911,1.498,3.909,2.903,5.999,4.195c31.359,19.385,69.291,33.363,110.207,42.021
			c29.966,6.67,55.27,3.933,75.889-8.261c5.1-3.017,9.273-6.996,12.517-11.552C657.721,610.739,695.513,499.795,697.449,485.795"/>
		<path clip-path="url(#SVGID_4_)" fill="#E6E6E6" d="M697.228,485.716c1.807-13.069-2.903-27.079-13.172-38.549
			c-20.501-22.899-45.35-40.284-71.7-52.741c-0.248-5.101-2.839-10.22-7.115-14.232l9.439-38.067
			c7.218,0.673,13.826-2.546,16.036-8.459c2.671-7.144-2.008-15.702-10.458-19.566c11.046,10.48,9.252,25.398-8.536,22.832
			l-19.964,53.397c17.699,10.833,34.261,24.133,48.657,40.21c10.269,11.47,14.978,25.481,13.17,38.548
			c-1.937,14-39.729,124.944-49.315,138.41c-3.243,4.556-7.418,8.534-12.519,11.55c-20.617,12.194-45.92,14.931-75.886,8.261
			c-12.629-2.672-24.971-5.854-36.924-9.543c24.557,11.366,51.819,20.087,80.566,26.168c29.965,6.67,55.27,3.935,75.887-8.26
			c5.101-3.016,9.274-6.996,12.518-11.551C657.497,610.659,695.29,499.714,697.228,485.716"/>
	</g>
	<g clip-path="url(#SVGID_2_)">
		<defs>
			<path id="SVGID_5_" d="M457.177,436.296l-6.038,16.151l-25.938-10.066l-3.849,8.509l26.52,10.292l-13.076,34.973
				c-10.892,29.13,3.458,61.741,32.051,72.837l47.906,18.59l-14.621,39.107l8.574,3.328l14.622-39.107l43.539,16.896
				c28.595,11.095,60.602-3.524,71.493-32.655l13.076-34.974l25.943,10.069l3.031-8.828l-25.707-9.976l6.039-16.151
				c10.89-29.13-3.46-61.742-32.054-72.837l-100.02-38.814c-6.489-2.519-13.156-3.712-19.711-3.712
				C486.633,399.928,465.597,413.776,457.177,436.296"/>
		</defs>
		<clipPath id="SVGID_6_">
			<use xlink:href="#SVGID_5_"  overflow="visible"/>
		</clipPath>
		
			<linearGradient id="SVGID_7_" gradientUnits="userSpaceOnUse" x1="-0.2065" y1="1079.873" x2="0.701" y2="1079.873" gradientTransform="matrix(76.428 -200.3794 -200.3794 -76.428 216907.2813 83120.2109)">
			<stop  offset="0" style="stop-color:#0665BD"/>
			<stop  offset="1" style="stop-color:#1A1F77"/>
		</linearGradient>
		<polygon clip-path="url(#SVGID_6_)" fill="url(#SVGID_7_)" points="346.151,600.797 454.254,312.046 755.613,429.149 
			647.511,717.899 		"/>
	</g>
	<g clip-path="url(#SVGID_2_)">
		<defs>
			<path id="SVGID_8_" d="M502.112,464.438l-11.62,31.077c-0.992,2.656,0.328,5.658,2.936,6.669l20.755,8.055
				c2.607,1.012,5.554-0.333,6.546-2.99l11.619-31.077c0.994-2.656-0.328-5.657-2.935-6.668l-20.756-8.056
				c-0.589-0.228-1.194-0.336-1.792-0.336C504.819,461.111,502.881,462.382,502.112,464.438"/>
		</defs>
		<clipPath id="SVGID_9_">
			<use xlink:href="#SVGID_8_"  overflow="visible"/>
		</clipPath>
		
			<radialGradient id="SVGID_10_" cx="2.6152" cy="1079.9727" r="0.9997" gradientTransform="matrix(22.8999 -0.2592 -0.2544 -23.3302 726.2974 25682.4082)" gradientUnits="userSpaceOnUse">
			<stop  offset="0" style="stop-color:#FCEE21"/>
			<stop  offset="0.0527" style="stop-color:#FCE621"/>
			<stop  offset="0.4693" style="stop-color:#F8AA1F"/>
			<stop  offset="0.6684" style="stop-color:#F7931E"/>
			<stop  offset="1" style="stop-color:#F7931E"/>
		</radialGradient>
		<polygon clip-path="url(#SVGID_9_)" fill="url(#SVGID_10_)" points="488.953,461.118 533.336,460.615 533.888,511.243 
			489.506,511.746 		"/>
	</g>
	<g clip-path="url(#SVGID_2_)">
		<defs>
			<path id="SVGID_11_" d="M578.441,494.059l-11.619,31.077c-0.992,2.657,0.328,5.658,2.935,6.668l20.757,8.055
				c2.606,1.011,5.552-0.333,6.545-2.99l11.619-31.077c0.994-2.655-0.328-5.656-2.934-6.668l-20.756-8.054
				c-0.59-0.229-1.196-0.337-1.793-0.337C581.148,490.733,579.21,492.004,578.441,494.059"/>
		</defs>
		<clipPath id="SVGID_12_">
			<use xlink:href="#SVGID_11_"  overflow="visible"/>
		</clipPath>
		
			<radialGradient id="SVGID_13_" cx="2.6152" cy="1079.9736" r="0.9997" gradientTransform="matrix(22.8999 -0.2592 -0.2544 -23.3302 802.6255 25712.0332)" gradientUnits="userSpaceOnUse">
			<stop  offset="0" style="stop-color:#FCEE21"/>
			<stop  offset="0.0527" style="stop-color:#FCE621"/>
			<stop  offset="0.4693" style="stop-color:#F8AA1F"/>
			<stop  offset="0.6684" style="stop-color:#F7931E"/>
			<stop  offset="1" style="stop-color:#F7931E"/>
		</radialGradient>
		<polygon clip-path="url(#SVGID_12_)" fill="url(#SVGID_13_)" points="565.282,490.739 609.666,490.237 610.218,540.863 
			565.834,541.367 		"/>
	</g>
	<g clip-path="url(#SVGID_2_)">
		<defs>
			<rect id="SVGID_14_" x="61" y="104" width="958" height="976"/>
		</defs>
		<clipPath id="SVGID_15_">
			<use xlink:href="#SVGID_14_"  overflow="visible"/>
		</clipPath>
		<path clip-path="url(#SVGID_15_)" fill="#E6E6E6" d="M580.937,716.97c11.16-11.759,19.097-28.573,25.366-48.009
			c0,0,16.373,67.443,11.182,82.938c-5.189,15.494-18.511-7.011-18.511-7.011L580.937,716.97z"/>
		<path clip-path="url(#SVGID_15_)" fill="#FFFFFF" d="M381.563,639.646c-0.028-16.356,5.706-34.074,14.428-52.502
			c0,0-57.72,36.997-64.534,51.822c-6.814,14.827,18.105,8.037,18.105,8.037L381.563,639.646z"/>
		<path clip-path="url(#SVGID_15_)" fill="#E6E6E6" d="M593.935,658.361c-39.29,12.511-160.805-36.246-182.481-70.816l-6.005-0.427
			l-0.227,0.685l-1.185,3.569c-0.923,2.782-1.814,5.583-2.682,8.393c43.06,36.874,132.268,78.15,167.485,70.568l4.678,4.465
			l-2.166,4.241c-20.367,39.875-44.572,66.364-72.39,79.42c42.48-4.424,75.364-35.295,98.04-92.287l1.634-4.108L593.935,658.361z"/>
	</g>
	<g clip-path="url(#SVGID_2_)">
		<defs>
			<path id="SVGID_16_" d="M462.663,641.675c-4.299,4.072-5.924,10.163-4.239,15.892l8.787,29.88
				c0.869,2.954,2.531,5.507,4.763,7.427l-21.533,57.591l9.513,3.692l21.533-57.592c2.922,0.078,5.828-0.698,8.404-2.316
				l26.072-16.351c5-3.136,7.764-8.782,7.213-14.739c-0.551-5.954-4.301-10.978-9.787-13.106l-34.858-13.526
				c-1.792-0.697-3.648-1.037-5.484-1.037C469.261,637.488,465.559,638.933,462.663,641.675"/>
		</defs>
		<clipPath id="SVGID_17_">
			<use xlink:href="#SVGID_16_"  overflow="visible"/>
		</clipPath>
		
			<linearGradient id="SVGID_18_" gradientUnits="userSpaceOnUse" x1="-0.1973" y1="1079.8096" x2="0.709" y2="1079.8096" gradientTransform="matrix(59.4276 -156.0147 -156.0147 -59.4276 168955.4844 64861.5391)">
			<stop  offset="0" style="stop-color:#0665BD"/>
			<stop  offset="1" style="stop-color:#1A1F77"/>
		</linearGradient>
		<polygon clip-path="url(#SVGID_17_)" fill="url(#SVGID_18_)" points="411.694,741.12 459.726,612.653 562.473,652.525 
			514.44,780.992 		"/>
	</g>
	<g clip-path="url(#SVGID_2_)">
		<defs>
			<rect id="SVGID_19_" x="61" y="104" width="958" height="976"/>
		</defs>
		<clipPath id="SVGID_20_">
			<use xlink:href="#SVGID_19_"  overflow="visible"/>
		</clipPath>
		<path clip-path="url(#SVGID_20_)" fill="#FFFFFF" d="M475.163,682.411l-7.638-25.975c-1.939-6.597,4.391-12.594,10.708-10.141
			l30.302,11.759c6.316,2.451,7.128,11.22,1.371,14.83l-22.664,14.213C482.683,689.958,476.7,687.636,475.163,682.411"/>
	</g>
	<g clip-path="url(#SVGID_2_)">
		<defs>
			<path id="SVGID_21_" d="M474.825,659.997l4.921,16.735c0.99,3.368,4.846,4.863,7.783,3.021l14.602-9.159
				c3.71-2.326,3.187-7.977-0.883-9.555l-19.523-7.577c-0.637-0.246-1.273-0.359-1.892-0.359
				C476.508,653.103,473.77,656.411,474.825,659.997"/>
		</defs>
		<clipPath id="SVGID_22_">
			<use xlink:href="#SVGID_21_"  overflow="visible"/>
		</clipPath>
		
			<radialGradient id="SVGID_23_" cx="4.1997" cy="1079.9541" r="1" gradientTransform="matrix(14.255 -0.1613 -0.1584 -14.5229 600.8136 16351.4395)" gradientUnits="userSpaceOnUse">
			<stop  offset="0" style="stop-color:#45FFCD"/>
			<stop  offset="1" style="stop-color:#22E0FF"/>
		</radialGradient>
		<polygon clip-path="url(#SVGID_22_)" fill="url(#SVGID_23_)" points="473.46,653.106 505.836,652.738 506.15,681.592 
			473.774,681.959 		"/>
	</g>
</g>
</svg>
