<?xml version="1.0" encoding="utf-8"?>
<!-- Generator: Adobe Illustrator 16.0.0, SVG Export Plug-In . SVG Version: 6.00 Build 0)  -->
<!DOCTYPE svg PUBLIC "-//W3C//DTD SVG 1.1//EN" "http://www.w3.org/Graphics/SVG/1.1/DTD/svg11.dtd">
<svg version="1.1" id="Layer_1" xmlns="http://www.w3.org/2000/svg" xmlns:xlink="http://www.w3.org/1999/xlink" x="0px" y="0px"
	 width="1080px" height="1080px" viewBox="0 0 1080 1080" enable-background="new 0 0 1080 1080" xml:space="preserve">
<g>
	<defs>
		<rect id="SVGID_1_" width="1080" height="1080"/>
	</defs>
	<clipPath id="SVGID_2_">
		<use xlink:href="#SVGID_1_"  overflow="visible"/>
	</clipPath>
	<g clip-path="url(#SVGID_2_)">
		<text transform="matrix(1.0829 0 0 1 162.0225 924.1416)"><tspan x="0" y="0" fill="#2B4361" font-family="'Raleway-SemiBold'" font-size="145.6366">t</tspan><tspan x="53.447" y="0" fill="#2B4361" font-family="'Raleway-SemiBold'" font-size="145.6366">r</tspan><tspan x="107.769" y="0" fill="#2B4361" font-family="'Raleway-SemiBold'" font-size="145.6366" letter-spacing="-1.847">a</tspan><tspan x="187.286" y="0" fill="#2B4361" font-family="'Raleway-SemiBold'" font-size="145.6366" letter-spacing="-1.847">v</tspan><tspan x="264.034" y="0" fill="#2B4361" font-family="'Raleway-SemiBold'" font-size="145.6366">ens</tspan><tspan x="509.136" y="0" fill="#2B4361" font-family="'Raleway-SemiBold'" font-size="145.6366" letter-spacing="-3.694"> </tspan><tspan x="540.739" y="0" fill="#2B4361" font-family="'Raleway-SemiBold'" font-size="145.6366">AI</tspan></text>
	</g>
	<g clip-path="url(#SVGID_2_)">
		<defs>
			<rect id="SVGID_3_" width="1080" height="1080"/>
		</defs>
		<clipPath id="SVGID_4_">
			<use xlink:href="#SVGID_3_"  overflow="visible"/>
		</clipPath>
		<path clip-path="url(#SVGID_4_)" fill="#2B4361" d="M697.253,127.024c-4.479,7.594-4.089,18.21,21.29,47.041
			c0.844,0.961,1.702,1.93,2.569,2.908l-6.362,24.324L712.92,199c-0.749-0.941-2.119-1.097-3.059-0.347l-2.02,1.607
			c-0.94,0.75-1.096,2.12-0.347,3.061l5.063,6.356l-6.423,24.556l-1.122-1.409c-0.749-0.941-2.119-1.096-3.059-0.347l-2.02,1.608
			c-0.94,0.749-1.096,2.119-0.347,3.059l4.355,5.469l-5.152,19.699l10.589,13.294l36.301-71.704
			c13.939,14.959,27.752,29.367,37.461,39.404l-7.471,25.319l7.042,8.843l14.739-21.716l7.007,4.397l-2.719-7.813l24.464-9.505
			l-7.043-8.843l-26.349,1.617c-7.61-11.709-18.562-28.397-30.022-45.329l78.008-19.336l-10.588-13.295l-20.352,0.614l-4.355-5.468
			c-0.75-0.941-2.12-1.096-3.06-0.347l-2.02,1.608c-0.94,0.749-1.096,2.118-0.346,3.059l1.122,1.409l-25.371,0.766l-5.063-6.357
			c-0.75-0.941-2.118-1.096-3.06-0.347l-2.02,1.608c-0.94,0.749-1.096,2.119-0.347,3.06l1.83,2.297l-25.13,0.758
			c-0.759-1.063-1.513-2.117-2.259-3.156c-22.422-31.185-32.683-33.941-41.086-31.275
			C698.093,126.065,697.574,126.478,697.253,127.024"/>
		<path clip-path="url(#SVGID_4_)" fill="#2B4361" d="M805.065,271.131c29.7,52.94,43.482,115.438,35.663,180.32
			C821.138,614.02,673.47,729.926,510.902,710.334c-162.568-19.591-278.474-167.259-258.883-329.827
			c12.925-107.258,81.611-194.191,173.538-235.312c-117.369,39.72-207.678,143.798-223.492,275.024
			c-21.947,182.125,107.903,347.559,290.028,369.506c182.126,21.948,347.559-107.902,369.506-290.028
			C871.705,415.84,849.608,335.534,805.065,271.131"/>
		<path clip-path="url(#SVGID_4_)" fill="#2B4361" d="M721.392,456.965c4.562-14.332,7.177-23.769,7.79-28.128
			c2.646-18.775-4.082-38.583-18.459-54.345c-21.65-23.737-48.152-43.419-78.85-58.575c-1.122-3.338-2.757-6.554-4.864-9.562
			l6.361-25.172c9.308-2.534,16.738-8.837,20.031-17.485c3.274-8.599,2.793-19.024-1.29-27.89
			c-3.731-8.104-10.231-14.158-18.301-17.049c-3.331-1.193-6.875-1.813-10.536-1.84c-14.791-0.113-29.607,9.421-34.465,22.177
			c-3.474,9.124-1.76,19.235,4.048,27.456l-12.179,21.837c-4.204,0.94-8.145,2.523-11.64,4.673
			c-23.445-5.782-47.04-8.799-70.24-8.977c-7.609-0.058-15.161,0.204-22.444,0.776c-22.389,1.759-41.402,12.143-52.162,28.49
			c-1.431,2.171-4.179,6.877-11.732,22.406l-21.52-2.378l-31.89,70.857l15.129,14.4c-5.096,11.523-6.188,14.388-6.547,15.412
			c-9.865,26.06-8.258,51.629,4.777,76.004c1.922,3.595,4.103,7.157,6.524,10.699l-2.511,1.58
			c-20.64,12.985-69.569,45.158-78.113,63.415c-4.904,10.472-1.957,17.867,0.235,21.345c2.766,4.387,8.58,9.636,20.566,9.728h0.004
			c7.055,0.054,14.257-1.671,16.009-2.121l23.943-5.401c-1.592,49.539,19.507,87.043,63.974,113.826
			c11.587,6.345,23.943,11.419,37.659,14.193c7.266,1.072,14.391,1.64,21.292,1.692h0.002c10.158,0.078,20.086-0.957,29.445-3.064
			l0.304-0.066c1.536-0.349,3.058-0.728,4.624-1.147l0.452-0.124c4.66-1.274,9.244-2.827,13.627-4.617l0.208-0.084
			c1.369-0.562,2.724-1.157,4.087-1.775l0.936-0.431c1.313-0.61,2.623-1.242,3.972-1.93l0.332-0.173
			c4.006-2.063,7.995-4.41,11.838-6.965c0.446-0.296,0.89-0.593,1.349-0.904c1.07-0.731,2.135-1.48,3.171-2.235
			c0.352-0.255,1.413-1.052,1.413-1.052c3.301-2.473,6.572-5.167,9.731-8.017l0.318-0.289c0.464-0.418,0.929-0.838,1.398-1.275
			c0.846-0.789,1.685-1.596,2.525-2.416c0.624-0.611,1.243-1.233,1.973-1.969c0.751-0.761,1.501-1.521,2.265-2.327
			c0.67-0.712,1.335-1.444,1.998-2.176l0.239-0.266c0.414-0.455,0.815-0.93,1.225-1.392l12.709,19.307
			c4.7,7.725,14.328,20.374,26.978,20.475h0.003c3.343,0.025,14.617-1.038,19.638-15.752c6.512-19.079-6.4-76.195-12.257-99.866
			l-0.579-2.343c9.418-2.502,18.291-6.143,26.545-10.935c7.297-4.236,13.53-9.88,18.528-16.771
			c1.677-2.313,5.922-8.163,19.414-43.297l24.898-0.259l25.735-73.298L721.392,456.965z"/>
		<path clip-path="url(#SVGID_4_)" fill="#FFFFFF" d="M600.803,613.432c-44.294,13.845-181.282-40.106-205.72-78.361l-6.769-0.472
			l-0.256,0.757l-1.336,3.95c-4.59,13.569-8.649,27.461-11.394,41.342c-10.366,52.414-1.771,104.697,69.822,139.097l1.48,0.711
			l1.591,0.369c70.384,16.275,122.883-16.949,156.04-98.749l1.842-4.546L600.803,613.432z"/>
		<polygon clip-path="url(#SVGID_4_)" fill="#E6E6E6" points="707.628,526.254 682.694,526.513 707.168,458.049 726.521,472.44 		
			"/>
		<polygon clip-path="url(#SVGID_4_)" fill="#FFFFFF" points="378.884,396.493 396.871,413.613 426.344,347.113 402.301,344.456 		
			"/>
		<path clip-path="url(#SVGID_4_)" fill="#FFFFFF" d="M717.501,422.478c2.038-14.46-3.271-29.964-14.849-42.656
			c-23.112-25.339-51.125-44.577-80.832-58.361c-0.278-5.643-3.199-11.309-8.021-15.748l10.642-42.124
			c8.138,0.745,15.586-2.816,18.079-9.36c3.151-8.273,0.251-22.263-11.008-26.295c-10.453-3.745-23.574,3.649-26.726,11.922
			c-2.64,6.929,1.094,15.058,8.467,19.843L592.227,297.4c-6.975,0.053-13.306,2.557-17.302,7.014
			c-32.886-8.905-65.837-11.865-94.896-9.582c-17.843,1.403-32.966,9.43-41.286,22.067c-8.088,12.285-52.653,110.57-55.045,117.682
			c-18.61,48.828,13.248,85.467,47.539,111.838c2.154,1.657,4.407,3.213,6.763,4.643c35.353,21.45,78.115,36.918,124.242,46.497
			c33.782,7.381,62.309,4.353,85.552-9.141c5.75-3.338,10.456-7.741,14.111-12.782C672.712,560.736,715.317,437.97,717.501,422.478"
			/>
		<path clip-path="url(#SVGID_4_)" fill="#E6E6E6" d="M717.25,422.39c2.037-14.461-3.272-29.964-14.849-42.656
			c-23.112-25.339-51.125-44.577-80.831-58.361c-0.28-5.644-3.2-11.309-8.022-15.748l10.642-42.124
			c8.138,0.745,15.587-2.817,18.078-9.36c3.012-7.905-2.263-17.375-11.789-21.652c12.452,11.597,10.431,28.105-9.623,25.266
			l-22.507,59.087c19.953,11.987,38.625,26.704,54.854,44.495c11.577,12.692,16.886,28.196,14.848,42.656
			c-2.183,15.492-44.789,138.258-55.596,153.158c-3.656,5.041-8.362,9.443-14.112,12.781c-23.243,13.493-51.769,16.521-85.551,9.141
			c-14.236-2.956-28.149-6.479-41.626-10.56c27.684,12.577,58.417,22.227,90.826,28.956c33.78,7.381,62.308,4.354,85.55-9.141
			c5.751-3.337,10.456-7.74,14.113-12.781C672.46,560.648,715.066,437.881,717.25,422.39"/>
	</g>
	<g clip-path="url(#SVGID_2_)">
		<defs>
			<path id="SVGID_5_" d="M446.63,367.704l-6.807,17.872l-29.241-11.138l-4.339,9.416l29.897,11.389l-14.741,38.7
				c-12.279,32.234,3.899,68.319,36.133,80.598l54.007,20.571l-16.483,43.275l9.666,3.684l16.484-43.275l49.084,18.697
				c32.235,12.276,68.319-3.9,80.598-36.135l14.741-38.7l29.248,11.142l3.416-9.769l-28.98-11.039l6.808-17.872
				c12.276-32.234-3.9-68.32-36.135-80.598l-112.757-42.95c-7.315-2.787-14.832-4.108-22.221-4.108
				C479.837,327.461,456.122,342.785,446.63,367.704"/>
		</defs>
		<clipPath id="SVGID_6_">
			<use xlink:href="#SVGID_5_"  overflow="visible"/>
		</clipPath>
		
			<linearGradient id="SVGID_7_" gradientUnits="userSpaceOnUse" x1="0" y1="1079.9668" x2="1" y2="1079.9668" gradientTransform="matrix(76.428 -200.3794 -200.3794 -76.428 216907.2813 83120.2109)">
			<stop  offset="0" style="stop-color:#0665BD"/>
			<stop  offset="1" style="stop-color:#1A1F77"/>
		</linearGradient>
		<polygon clip-path="url(#SVGID_6_)" fill="url(#SVGID_7_)" points="321.464,549.734 443.334,230.215 783.071,359.797 
			661.202,679.315 		"/>
	</g>
	<g clip-path="url(#SVGID_2_)">
		<defs>
			<path id="SVGID_8_" d="M495.614,403.238l-9.753,25.603c-2.04,5.355,0.673,11.406,6.028,13.445l14.614,5.567
				c5.355,2.039,11.406-0.673,13.445-6.029l9.752-25.602c2.04-5.355-0.673-11.406-6.028-13.446l-14.613-5.566
				c-1.21-0.461-2.455-0.679-3.682-0.679C501.175,396.531,497.192,399.093,495.614,403.238"/>
		</defs>
		<clipPath id="SVGID_9_">
			<use xlink:href="#SVGID_8_"  overflow="visible"/>
		</clipPath>
		
			<radialGradient id="SVGID_10_" cx="0" cy="1080" r="1" gradientTransform="matrix(24.4225 -0.2713 -0.2713 -24.4225 800.8165 26798.8262)" gradientUnits="userSpaceOnUse">
			<stop  offset="0" style="stop-color:#FCEE21"/>
			<stop  offset="0.0527" style="stop-color:#FCE621"/>
			<stop  offset="0.4693" style="stop-color:#F8AA1F"/>
			<stop  offset="0.6684" style="stop-color:#F7931E"/>
			<stop  offset="1" style="stop-color:#F7931E"/>
		</radialGradient>
		<polygon clip-path="url(#SVGID_9_)" fill="url(#SVGID_10_)" points="483.228,396.538 531.734,395.999 532.333,449.886 
			483.827,450.424 		"/>
	</g>
	<g clip-path="url(#SVGID_2_)">
		<defs>
			<path id="SVGID_11_" d="M581.664,436.015l-9.753,25.603c-2.039,5.355,0.673,11.406,6.028,13.445l14.613,5.567
				c5.355,2.04,11.405-0.673,13.446-6.028l9.751-25.603c2.041-5.355-0.672-11.405-6.027-13.445l-14.613-5.566
				c-1.211-0.462-2.456-0.68-3.684-0.68C587.224,429.308,583.242,431.87,581.664,436.015"/>
		</defs>
		<clipPath id="SVGID_12_">
			<use xlink:href="#SVGID_11_"  overflow="visible"/>
		</clipPath>
		
			<radialGradient id="SVGID_13_" cx="0" cy="1080" r="1" gradientTransform="matrix(24.4225 -0.2713 -0.2713 -24.4225 886.8634 26831.6074)" gradientUnits="userSpaceOnUse">
			<stop  offset="0" style="stop-color:#FCEE21"/>
			<stop  offset="0.0527" style="stop-color:#FCE621"/>
			<stop  offset="0.4693" style="stop-color:#F8AA1F"/>
			<stop  offset="0.6684" style="stop-color:#F7931E"/>
			<stop  offset="1" style="stop-color:#F7931E"/>
		</radialGradient>
		<polygon clip-path="url(#SVGID_12_)" fill="url(#SVGID_13_)" points="569.279,429.314 617.785,428.776 618.384,482.664 
			569.878,483.202 		"/>
	</g>
	<g clip-path="url(#SVGID_2_)">
		<defs>
			<rect id="SVGID_14_" width="1080" height="1080"/>
		</defs>
		<clipPath id="SVGID_15_">
			<use xlink:href="#SVGID_14_"  overflow="visible"/>
		</clipPath>
		<path clip-path="url(#SVGID_15_)" fill="#E6E6E6" d="M586.15,678.286c12.58-13.012,21.528-31.617,28.596-53.124
			c0,0,18.458,74.63,12.605,91.774c-5.851,17.145-20.867-7.758-20.867-7.758L586.15,678.286z"/>
		<path clip-path="url(#SVGID_15_)" fill="#FFFFFF" d="M361.387,592.723c-0.032-18.099,6.433-37.705,16.265-58.097
			c0,0-65.071,40.939-72.752,57.345c-7.682,16.407,20.41,8.893,20.41,8.893L361.387,592.723z"/>
		<path clip-path="url(#SVGID_15_)" fill="#E6E6E6" d="M600.803,613.432c-44.294,13.845-181.282-40.107-205.72-78.361l-6.769-0.472
			l-0.256,0.757l-1.336,3.95c-1.041,3.078-2.045,6.178-3.023,9.286c48.544,40.804,149.112,86.479,188.814,78.089l5.272,4.939
			l-2.441,4.693c-22.961,44.124-50.248,73.437-81.608,87.883c47.89-4.896,84.961-39.056,110.525-102.121l1.843-4.546
			L600.803,613.432z"/>
	</g>
	<g clip-path="url(#SVGID_2_)">
		<defs>
			<path id="SVGID_16_" d="M452.814,594.968c-4.847,4.507-6.679,11.247-4.779,17.585l9.906,33.064
				c0.979,3.269,2.853,6.093,5.369,8.218l-24.275,63.728l10.725,4.086l24.274-63.729c3.294,0.087,6.571-0.773,9.476-2.563
				l29.392-18.095c5.636-3.469,8.752-9.718,8.132-16.309c-0.621-6.589-4.849-12.147-11.035-14.504l-39.297-14.968
				c-2.02-0.771-4.113-1.146-6.182-1.146C460.252,590.336,456.079,591.934,452.814,594.968"/>
		</defs>
		<clipPath id="SVGID_17_">
			<use xlink:href="#SVGID_16_"  overflow="visible"/>
		</clipPath>
		
			<linearGradient id="SVGID_18_" gradientUnits="userSpaceOnUse" x1="0" y1="1079.9346" x2="1" y2="1079.9346" gradientTransform="matrix(59.4276 -156.0147 -156.0147 -59.4276 168955.4844 64861.5391)">
			<stop  offset="0" style="stop-color:#0665BD"/>
			<stop  offset="1" style="stop-color:#1A1F77"/>
		</linearGradient>
		<polygon clip-path="url(#SVGID_17_)" fill="url(#SVGID_18_)" points="395.354,705.01 449.503,562.854 565.334,606.975 
			511.186,749.131 		"/>
	</g>
	<g clip-path="url(#SVGID_2_)">
		<defs>
			<rect id="SVGID_19_" width="1080" height="1080"/>
		</defs>
		<clipPath id="SVGID_20_">
			<use xlink:href="#SVGID_19_"  overflow="visible"/>
		</clipPath>
		<path clip-path="url(#SVGID_20_)" fill="#FFFFFF" d="M466.906,640.045l-8.611-28.742c-2.186-7.299,4.951-13.936,12.072-11.222
			l34.161,13.012c7.121,2.712,8.035,12.415,1.546,16.41l-25.55,15.729C475.383,648.396,468.639,645.827,466.906,640.045"/>
	</g>
	<g clip-path="url(#SVGID_2_)">
		<defs>
			<path id="SVGID_21_" d="M466.525,615.243l5.548,18.519c1.116,3.727,5.462,5.381,8.774,3.342l16.462-10.135
				c4.181-2.574,3.592-8.826-0.996-10.572l-22.01-8.385c-0.718-0.272-1.436-0.398-2.132-0.398
				C468.423,607.613,465.336,611.275,466.525,615.243"/>
		</defs>
		<clipPath id="SVGID_22_">
			<use xlink:href="#SVGID_21_"  overflow="visible"/>
		</clipPath>
		
			<radialGradient id="SVGID_23_" cx="0" cy="1080" r="1" gradientTransform="matrix(16.0704 -0.1785 -0.1785 -16.0704 676.0719 17978.7207)" gradientUnits="userSpaceOnUse">
			<stop  offset="0" style="stop-color:#45FFCD"/>
			<stop  offset="1" style="stop-color:#22E0FF"/>
		</radialGradient>
		<polygon clip-path="url(#SVGID_22_)" fill="url(#SVGID_23_)" points="464.986,607.617 501.485,607.211 501.84,639.139 
			465.34,639.545 		"/>
	</g>
</g>
</svg>
