<svg xmlns="http://www.w3.org/2000/svg" xmlns:xlink="http://www.w3.org/1999/xlink" id="Layer_1" width="1080" height="1080" x="0" y="0" enable-background="new 0 0 1080 1080" version="1.1" viewBox="0 0 1080 1080" xml:space="preserve"><g><defs><rect id="SVGID_1_" width="1582" height="1418" x="-284" y="-116"/></defs><clipPath id="SVGID_2_"><use overflow="visible" xlink:href="#SVGID_1_"/></clipPath><path fill="#2B4361" d="M812.071,481.056l2.578,101.976l-33.997,11.846 c-0.343,49.42-3.134,58.572-4.242,62.187c-1.964,6.431-4.769,12.528-8.373,18.22c0,0-2.59,6.505-8.364,10.963 c-11.353,8.765-32.385,25.771-65.381,37.969c-24.332,9.243-54.643,16.528-96.301,20.357c-1.751,0.154-3.499,0.312-5.27,0.458 c-7.944,0.65-16.092,1.156-24.341,1.529c-5.501,0.244-11.052,0.409-16.637,0.527c-0.937,0.007-1.868,0.027-2.798,0.045 c-2.785,0.043-5.593,0.065-8.402,0.089c-0.935,0.009-1.863-0.002-2.799,0.005c-6.555,0.01-13.117-0.074-19.637-0.242l-0.014,0.002 c-10.493-0.272-20.922-0.763-31.132-1.48c-2.046-0.136-4.102-0.298-6.143-0.464c-2.67-0.207-5.331-0.432-7.97-0.675 c-1.512-0.136-3.016-0.287-4.52-0.438c-1.563-0.145-3.138-0.316-4.693-0.478l-0.013,0.003c-1.741-0.196-3.451-0.389-5.161-0.585 l-0.015,0.005c-1.715-0.206-3.417-0.418-5.084-0.625c-0.859-0.104-1.688-0.217-2.531-0.325c-2.933-0.383-5.824-0.783-8.671-1.222 c-2.836-0.418-5.656-0.87-8.408-1.345l-0.011,0.006c-2.364-0.41-4.687-0.831-6.96-1.257c-1.515-0.287-3.031-0.576-4.522-0.886 c-0.738-0.157-1.473-0.303-2.211-0.458c-4.393-0.916-8.639-1.896-12.681-2.944c-0.669-0.181-1.34-0.359-2.005-0.527 c-1.995-0.535-3.947-1.084-5.824-1.64c-1.269-0.372-2.495-0.757-3.721-1.143c-3.632-1.157-21.984-7.032-26.313-9.064 c-10.311-3.512-25.93-10.094-42.851-22.451c-4.086-2.983-21.65-16.315-33.743-39.647c-8.05-15.537-12.093-32.748-12.062-51.518 c-0.04-1.432-0.022-5.448,1.02-21.966l-28.176-10.686l7.114-101.827l30.727-7.038c2.33-22.576,3.666-29.636,4.504-32.964 c6.306-25.07,27.014-46.628,56.784-59.152c9.698-4.075,19.911-7.889,30.375-11.338c31.887-10.532,65.785-17.743,100.913-21.498 c3.673-4.258,8.259-8.022,13.545-11.125l5.413-32.472c-12.209-7.411-19.774-19.04-19.729-31.851 c0.072-17.928,15.451-36.493,35.781-43.205c5.045-1.663,10.216-2.54,15.397-2.619c12.555-0.186,24.59,4.239,33.892,12.476 c10.168,8.997,16.227,21.584,16.172,33.669c-0.042,12.151-6.973,23.331-18.426,30.75l4.285,33.881 c4.442,2.709,8.341,5.91,11.601,9.496c49.908,4.401,96.399,16.325,138.334,35.459c27.85,12.704,47.308,33.929,53.374,58.229 c1.417,5.64,2.695,18.44,3.851,38.168L812.071,481.056z" clip-path="url(#SVGID_2_)"/><path fill="#E6E6E6" d="M407.366,733.817c4.037,1.037,8.282,2.016,12.68,2.944 C415.654,735.846,411.407,734.866,407.366,733.817" clip-path="url(#SVGID_2_)"/><path fill="#E6E6E6" d="M433.754,739.356c2.75,0.475,5.565,0.914,8.406,1.345 C439.324,740.283,436.504,739.831,433.754,739.356" clip-path="url(#SVGID_2_)"/><path fill="#E6E6E6" d="M442.16,740.701c2.842,0.428,5.738,0.839,8.67,1.222 C447.898,741.54,445.006,741.14,442.16,740.701" clip-path="url(#SVGID_2_)"/><path fill="#E6E6E6" d="M551.744,747.087c5.586-0.118,11.13-0.295,16.637-0.527 C562.88,746.804,557.33,746.969,551.744,747.087" clip-path="url(#SVGID_2_)"/><polygon fill="#E6E6E6" points="794.517 563.712 760.474 575.572 758.659 480.125 792.621 488.847" clip-path="url(#SVGID_2_)"/><polygon fill="#FFF" points="276.875 556.475 310.373 569.183 316.425 473.833 282.096 481.699" clip-path="url(#SVGID_2_)"/><path fill="#FFF" d="M754.45,431.638c-4.675-18.71-19.961-35.3-42.385-45.534 c-44.769-20.434-93.104-31.102-140.943-34.284c-3.295-6.804-10.225-12.414-19.128-15.635l-7.169-56.682 c11.538-2.852,19.908-10.675,19.946-19.869c0.047-11.624-11.154-27.469-28.67-27.211c-16.263,0.238-30.429,15.397-30.477,27.02 c-0.039,9.736,9.277,17.996,21.855,20.461l-9.35,56.054c-9.533,3.295-16.918,9.301-20.092,16.628 c-49.678,4.284-96.375,15.902-135.028,32.159c-23.733,9.985-40.316,26.847-45.194,46.226 c-4.74,18.838-15.065,160.227-14.67,170.071c-0.291,68.607,62.303,98.875,122.928,115.398c3.808,1.041,7.699,1.909,11.667,2.574 c59.539,9.988,126.142,9.195,194.318-0.389c50.118-6.57,87.658-23.498,112.547-50.838c6.159-6.761,10.334-14.351,12.742-22.237 C764.465,622.24,759.458,451.682,754.45,431.638" clip-path="url(#SVGID_2_)"/><path fill="#E6E6E6" d="M754.062,431.646c-4.677-18.709-19.963-35.3-42.386-45.535 c-44.769-20.432-93.103-31.1-140.941-34.283c-3.299-6.805-10.227-12.415-19.129-15.636l-7.171-56.682 c11.54-2.851,19.91-10.676,19.946-19.869c0.046-11.107-12.076-20.301-27.342-21.144c23.057,8.483,28.813,29.701-0.142,35.495 l-0.332,83.018c33.54,5.49,66.736,14.928,98.17,29.273c22.423,10.234,37.709,26.827,42.383,45.536 c5.011,20.043,10.017,190.603,2.899,213.913c-2.408,7.888-6.584,15.474-12.743,22.236c-24.89,27.341-62.428,44.267-112.546,50.838 c-21.042,2.957-41.932,5.072-62.512,6.296c44.444,2.637,91.553,0.264,139.453-6.472c50.118-6.569,87.657-23.496,112.547-50.834 c6.16-6.765,10.334-14.354,12.743-22.237C764.075,622.25,759.069,451.69,754.062,431.646" clip-path="url(#SVGID_2_)"/></g><g><defs><path id="SVGID_3_" d="M446.35,408.032c-11.346-0.001-22.215,1.853-32.247,5.242c-34.501,11.649-59.096,41.455-59.234,76.466 l-0.101,25.109l-45.833-0.147l-1.084,13.578l46.862,0.151l-0.217,54.373c-0.183,45.287,40.629,82.134,91.157,82.299l84.653,0.27 l-0.242,60.802l15.151,0.05l0.244-60.8l76.939,0.248c50.526,0.158,91.633-36.42,91.813-81.708l0.221-54.373l45.844,0.146 l-0.36-13.582l-45.429-0.148l0.101-25.11c0.179-45.286-40.634-82.134-91.158-82.296l-176.745-0.57 C446.573,408.032,446.461,408.032,446.35,408.032"/></defs><clipPath id="SVGID_4_"><use overflow="visible" xlink:href="#SVGID_3_"/></clipPath><linearGradient id="SVGID_5_" x1="-.395" x2=".919" y1="1079.854" y2="1079.854" gradientTransform="matrix(0.8657 -214.4374 214.4374 0.8657 -231027.2969 -294.5359)" gradientUnits="userSpaceOnUse"><stop offset="0" style="stop-color:#0665bd"/><stop offset="1" style="stop-color:#1a1f77"/></linearGradient><polygon fill="url(#SVGID_5_)" points="760.27 727.862 761.708 408.036 307.857 406.393 306.416 726.22" clip-path="url(#SVGID_4_)"/></g><g><defs><path id="SVGID_6_" d="M455.617,497.091c-1.874,0-3.67,0.308-5.333,0.87c-5.76,1.946-9.897,6.938-9.92,12.76l-0.145,35.972 c-0.029,7.522,6.816,13.701,15.208,13.728l22.907,0.074c8.393,0.025,15.288-6.107,15.317-13.631l0.143-35.971 c0.029-7.523-6.814-13.703-15.209-13.729l-22.904-0.073C455.66,497.091,455.639,497.091,455.617,497.091"/></defs><clipPath id="SVGID_7_"><use overflow="visible" xlink:href="#SVGID_6_"/></clipPath><radialGradient id="SVGID_8_" cx="0" cy="1080" r="1" gradientTransform="matrix(33.3464 -11.6431 12.9897 29.8895 -13561.876 -31751.832)" gradientUnits="userSpaceOnUse"><stop offset="0" style="stop-color:#fcee21"/><stop offset=".078" style="stop-color:#fbe221"/><stop offset=".476" style="stop-color:#f8a91f"/><stop offset=".668" style="stop-color:#f7931e"/><stop offset="1" style="stop-color:#f7931e"/></radialGradient><polygon fill="url(#SVGID_8_)" points="447.255 576.78 517.759 552.164 486.758 480.832 416.254 505.448" clip-path="url(#SVGID_7_)"/></g><g><defs><path id="SVGID_9_" d="M590.498,497.526c-1.873,0-3.672,0.308-5.335,0.87c-5.761,1.944-9.894,6.937-9.919,12.76l-0.143,35.972 c-0.031,7.522,6.812,13.703,15.207,13.727l22.905,0.076c8.396,0.029,15.288-6.105,15.316-13.63l0.146-35.971 c0.031-7.525-6.813-13.702-15.207-13.729l-22.905-0.073C590.541,497.526,590.52,497.526,590.498,497.526"/></defs><clipPath id="SVGID_10_"><use overflow="visible" xlink:href="#SVGID_9_"/></clipPath><radialGradient id="SVGID_11_" cx="-.002" cy="1080" r=".999" gradientTransform="matrix(33.3306 -11.6376 12.9835 29.8753 -13420.2949 -31736.168)" gradientUnits="userSpaceOnUse"><stop offset="0" style="stop-color:#fcee21"/><stop offset=".078" style="stop-color:#fbe221"/><stop offset=".476" style="stop-color:#f8a91f"/><stop offset=".668" style="stop-color:#f7931e"/><stop offset="1" style="stop-color:#f7931e"/></radialGradient><polygon fill="url(#SVGID_11_)" points="582.138 577.219 652.642 552.602 621.641 481.267 551.136 505.883" clip-path="url(#SVGID_10_)"/></g></svg>