<?xml version="1.0" encoding="utf-8"?>
<!-- Generator: Adobe Illustrator 16.0.0, SVG Export Plug-In . SVG Version: 6.00 Build 0)  -->
<!DOCTYPE svg PUBLIC "-//W3C//DTD SVG 1.1//EN" "http://www.w3.org/Graphics/SVG/1.1/DTD/svg11.dtd">
<svg version="1.1" id="Layer_1" xmlns="http://www.w3.org/2000/svg" xmlns:xlink="http://www.w3.org/1999/xlink" x="0px" y="0px"
	 width="1080px" height="1080px" viewBox="0 0 1080 1080" enable-background="new 0 0 1080 1080" xml:space="preserve">
<g>
	<defs>
		<rect id="SVGID_1_" x="-660.658" y="-316.625" width="2331.233" height="1959.276"/>
	</defs>
	<clipPath id="SVGID_2_">
		<use xlink:href="#SVGID_1_"  overflow="visible"/>
	</clipPath>
	<path clip-path="url(#SVGID_2_)" fill="#2B4361" d="M954.512,508.338l3.798,140.902l-50.097,16.366
		c-0.505,68.285-4.618,80.93-6.253,85.924c-2.892,8.886-7.026,17.312-12.338,25.176c0,0-3.815,8.987-12.324,15.146
		c-16.73,12.11-47.723,35.608-96.347,52.463c-35.854,12.771-80.52,22.836-141.908,28.128c-2.579,0.213-5.156,0.431-7.766,0.632
		c-11.706,0.898-23.712,1.599-35.869,2.115c-8.104,0.336-16.284,0.563-24.515,0.727c-1.381,0.011-2.753,0.039-4.124,0.063
		c-4.104,0.06-8.239,0.091-12.381,0.124c-1.378,0.01-2.745-0.005-4.124,0.006c-9.659,0.014-19.328-0.104-28.938-0.335l-0.02,0.003
		c-15.463-0.376-30.83-1.055-45.876-2.045c-3.014-0.188-6.044-0.412-9.052-0.641c-3.934-0.287-7.855-0.598-11.745-0.934
		c-2.229-0.188-4.445-0.396-6.662-0.605c-2.304-0.2-4.623-0.438-6.915-0.661l-0.02,0.006c-2.565-0.272-5.086-0.538-7.604-0.809
		l-0.023,0.006c-2.528-0.284-5.035-0.578-7.492-0.862c-1.266-0.144-2.486-0.3-3.729-0.45c-4.322-0.528-8.582-1.082-12.778-1.688
		c-4.18-0.577-8.335-1.201-12.391-1.858l-0.016,0.01c-3.484-0.566-6.906-1.148-10.257-1.736c-2.231-0.397-4.467-0.798-6.665-1.224
		c-1.086-0.219-2.17-0.42-3.258-0.635c-6.473-1.265-12.731-2.619-18.686-4.067c-0.987-0.249-1.975-0.497-2.956-0.729
		c-2.94-0.741-5.815-1.498-8.582-2.266c-1.87-0.514-3.677-1.046-5.483-1.578c-5.353-1.6-32.397-9.717-38.776-12.524
		c-15.194-4.854-38.211-13.947-63.144-31.021c-6.022-4.123-31.904-22.544-49.724-54.781c-11.862-21.47-17.82-45.249-17.774-71.184
		c-0.058-1.978-0.033-7.528,1.503-30.351l-41.521-14.766l10.482-140.694l45.279-9.725c3.433-31.194,5.402-40.949,6.637-45.547
		c9.292-34.639,39.809-64.426,83.677-81.731c14.291-5.631,29.341-10.9,44.76-15.666c46.989-14.552,96.94-24.516,148.706-29.705
		c5.413-5.883,12.169-11.083,19.96-15.372l7.976-44.868c-17.991-10.239-29.14-26.307-29.074-44.009
		c0.106-24.771,22.769-50.423,52.727-59.696c7.434-2.298,15.055-3.509,22.69-3.619c18.501-0.256,36.235,5.856,49.943,17.238
		c14.982,12.431,23.911,29.824,23.83,46.522c-0.063,16.789-10.274,32.236-27.152,42.487l6.314,46.814
		c6.546,3.743,12.292,8.166,17.095,13.121c73.545,6.082,142.055,22.556,203.85,48.994c41.039,17.553,69.712,46.88,78.652,80.455
		c2.086,7.794,3.971,25.479,5.673,52.738L954.512,508.338z"/>
	<path clip-path="url(#SVGID_2_)" fill="#E6E6E6" d="M358.138,857.583c5.948,1.433,12.204,2.784,18.686,4.067
		C370.352,860.386,364.092,859.031,358.138,857.583"/>
	<path clip-path="url(#SVGID_2_)" fill="#E6E6E6" d="M397.023,865.235c4.053,0.657,8.201,1.265,12.387,1.858
		C405.231,866.517,401.076,865.893,397.023,865.235"/>
	<path clip-path="url(#SVGID_2_)" fill="#E6E6E6" d="M409.411,867.094c4.187,0.591,8.456,1.16,12.776,1.688
		C417.867,868.254,413.605,867.7,409.411,867.094"/>
	<path clip-path="url(#SVGID_2_)" fill="#E6E6E6" d="M570.894,875.917c8.231-0.163,16.4-0.407,24.515-0.727
		C587.304,875.526,579.125,875.754,570.894,875.917"/>
	<polygon clip-path="url(#SVGID_2_)" fill="#E6E6E6" points="928.642,622.545 878.478,638.934 875.804,507.052 925.851,519.103 	"/>
	<polygon clip-path="url(#SVGID_2_)" fill="#FFFFFF" points="165.847,612.546 215.209,630.104 224.128,498.358 173.541,509.226 	"/>
	<path clip-path="url(#SVGID_2_)" fill="#FFFFFF" d="M869.601,440.056c-6.888-25.852-29.413-48.774-62.457-62.915
		c-65.972-28.233-137.197-42.973-207.694-47.371c-4.856-9.401-15.065-17.153-28.188-21.604l-10.563-78.318
		c17.002-3.94,29.336-14.75,29.393-27.453c0.069-16.061-16.438-37.955-42.249-37.599c-23.965,0.33-44.839,21.275-44.909,37.334
		c-0.057,13.452,13.671,24.865,32.207,28.271l-13.779,77.452c-14.048,4.552-24.931,12.851-29.607,22.975
		c-73.206,5.92-142.018,21.972-198.978,44.434c-34.973,13.797-59.409,37.096-66.598,63.872
		c-6.985,26.029-22.2,221.388-21.618,234.991c-0.428,94.795,91.81,136.616,181.146,159.447c5.611,1.439,11.346,2.64,17.193,3.558
		c87.737,13.801,185.884,12.706,286.348-0.537c73.854-9.078,129.173-32.468,165.849-70.244c9.075-9.341,15.228-19.827,18.775-30.726
		C884.358,703.414,876.98,467.752,869.601,440.056"/>
	<path clip-path="url(#SVGID_2_)" fill="#E6E6E6" d="M869.027,440.067c-6.891-25.852-29.416-48.775-62.458-62.916
		c-65.971-28.232-137.196-42.972-207.691-47.37c-4.861-9.402-15.071-17.153-28.188-21.604l-10.568-78.318
		c17.006-3.939,29.339-14.752,29.393-27.453c0.068-15.347-17.795-28.05-40.291-29.215c33.978,11.722,42.459,41.04-0.208,49.044
		l-0.489,114.707c49.424,7.586,98.344,20.626,144.663,40.448c33.042,14.141,55.568,37.067,62.455,62.918
		c7.383,27.695,14.76,263.359,4.272,295.567c-3.548,10.899-9.702,21.381-18.777,30.725c-36.679,37.778-91.994,61.164-165.848,70.243
		c-31.007,4.087-61.791,7.01-92.118,8.701c65.492,3.642,134.913,0.363,205.496-8.942c73.854-9.078,129.172-32.465,165.85-70.239
		c9.077-9.346,15.229-19.832,18.778-30.726C883.784,703.428,876.407,467.762,869.027,440.067"/>
</g>
<g>
	<defs>
		<path id="SVGID_3_" d="M415.585,407.439c-16.718-0.001-32.736,2.561-47.519,7.243c-50.841,16.095-87.083,57.279-87.288,105.653
			l-0.149,34.696l-67.54-0.204l-1.597,18.76l69.055,0.209l-0.319,75.128c-0.27,62.574,59.872,113.485,134.329,113.713l124.744,0.373
			l-0.357,84.01l22.329,0.069l0.36-84.007l113.378,0.342c74.455,0.219,135.028-50.322,135.293-112.896l0.326-75.128l67.555,0.202
			l-0.53-18.767l-66.943-0.204l0.147-34.695c0.264-62.572-59.877-113.485-134.331-113.709l-260.451-0.788
			C415.914,407.439,415.748,407.439,415.585,407.439"/>
	</defs>
	<clipPath id="SVGID_4_">
		<use xlink:href="#SVGID_3_"  overflow="visible"/>
	</clipPath>
	
		<linearGradient id="SVGID_5_" gradientUnits="userSpaceOnUse" x1="-0.9561" y1="1079.9063" x2="0.8604" y2="1079.9063" gradientTransform="matrix(0.8657 -214.4374 214.4374 0.8657 -231027.2969 -294.5359)">
		<stop  offset="0" style="stop-color:#0665BD"/>
		<stop  offset="1" style="stop-color:#1A1F77"/>
	</linearGradient>
	<polygon clip-path="url(#SVGID_4_)" fill="url(#SVGID_5_)" points="878.177,849.354 880.297,407.445 211.502,405.175 
		209.378,847.086 	"/>
</g>
<g>
	<defs>
		<path id="SVGID_6_" d="M429.241,530.495c-2.76,0-5.408,0.425-7.858,1.201c-8.488,2.688-14.585,9.587-14.619,17.631l-0.214,49.703
			c-0.042,10.394,10.044,18.932,22.411,18.967l33.756,0.104c12.368,0.034,22.527-8.438,22.571-18.834l0.212-49.702
			c0.043-10.394-10.042-18.934-22.412-18.971l-33.752-0.099C429.305,530.495,429.272,530.495,429.241,530.495"/>
	</defs>
	<clipPath id="SVGID_7_">
		<use xlink:href="#SVGID_6_"  overflow="visible"/>
	</clipPath>
	
		<radialGradient id="SVGID_8_" cx="2.5288" cy="1075.7412" r="1.0003" gradientTransform="matrix(49.1392 -16.0875 19.1416 41.2988 -20269.6172 -43811.8516)" gradientUnits="userSpaceOnUse">
		<stop  offset="0" style="stop-color:#FCEE21"/>
		<stop  offset="0.078" style="stop-color:#FBE221"/>
		<stop  offset="0.4765" style="stop-color:#F8A91F"/>
		<stop  offset="0.6684" style="stop-color:#F7931E"/>
		<stop  offset="1" style="stop-color:#F7931E"/>
	</radialGradient>
	<polygon clip-path="url(#SVGID_7_)" fill="url(#SVGID_8_)" points="416.919,640.602 520.813,606.588 475.13,508.027 
		371.236,542.04 	"/>
</g>
<g>
	<defs>
		<path id="SVGID_9_" d="M628.001,531.095c-2.76,0-5.41,0.426-7.861,1.201c-8.488,2.687-14.578,9.586-14.616,17.63l-0.21,49.703
			c-0.045,10.394,10.037,18.935,22.408,18.967l33.753,0.105c12.372,0.04,22.53-8.437,22.572-18.833l0.214-49.702
			c0.045-10.398-10.039-18.933-22.41-18.97l-33.753-0.102C628.063,531.095,628.033,531.095,628.001,531.095"/>
	</defs>
	<clipPath id="SVGID_10_">
		<use xlink:href="#SVGID_9_"  overflow="visible"/>
	</clipPath>
	
		<radialGradient id="SVGID_11_" cx="2.5303" cy="1075.7383" r="0.9989" gradientTransform="matrix(49.1159 -16.0799 19.1325 41.2793 -20061.1387 -43790.082)" gradientUnits="userSpaceOnUse">
		<stop  offset="0" style="stop-color:#FCEE21"/>
		<stop  offset="0.078" style="stop-color:#FBE221"/>
		<stop  offset="0.4765" style="stop-color:#F8A91F"/>
		<stop  offset="0.6684" style="stop-color:#F7931E"/>
		<stop  offset="1" style="stop-color:#F7931E"/>
	</radialGradient>
	<polygon clip-path="url(#SVGID_10_)" fill="url(#SVGID_11_)" points="615.681,641.209 719.576,607.193 673.894,508.629 
		569.997,542.642 	"/>
</g>
</svg>
